<?xml version="1.0" standalone="no"?>
<!DOCTYPE svg PUBLIC "-//W3C//DTD SVG 20010904//EN"
 "http://www.w3.org/TR/2001/REC-SVG-20010904/DTD/svg10.dtd">
<svg version="1.0" xmlns="http://www.w3.org/2000/svg"
 width="568.000000pt" height="568.000000pt" viewBox="0 0 568.000000 568.000000"
 preserveAspectRatio="xMidYMid meet">
<metadata>
Created by potrace 1.14, written by Peter Selinger 2001-2017
</metadata>
<g transform="translate(0.000000,568.000000) scale(0.100000,-0.100000)"
fill="#000000" stroke="none">
<path d="M2595 4544 c-253 -34 -470 -99 -663 -199 -157 -81 -270 -165 -387
-286 -199 -207 -321 -453 -385 -774 -27 -134 -40 -426 -20 -449 15 -19 5 -36
-23 -36 -32 -1 -105 -36 -152 -75 -150 -122 -178 -451 -60 -685 69 -136 233
-217 423 -208 l74 3 47 -176 c80 -302 101 -329 448 -558 l141 -93 -45 -67
c-101 -146 -225 -452 -347 -859 l-24 -82 69 0 c38 0 69 2 69 5 0 11 182 660
187 665 19 20 116 -177 141 -287 25 -106 52 -285 52 -342 l0 -41 311 0 312 0
-7 174 -7 174 92 0 91 0 -7 -174 -7 -174 311 0 311 0 0 41 c0 57 27 236 52
342 20 90 78 218 122 271 l24 29 20 -64 c10 -35 52 -189 92 -341 l73 -278 45
0 44 0 -7 38 c-15 84 -97 377 -145 516 -56 166 -141 340 -195 403 l-36 42 143
94 c220 145 301 209 346 272 48 67 82 164 152 433 l11 43 72 -7 c178 -16 344
65 420 203 83 153 99 409 36 553 -49 111 -141 190 -248 211 l-58 11 14 42 c12
34 13 65 4 183 -14 174 -40 314 -87 464 -115 364 -353 656 -674 827 -110 59
-339 146 -462 176 -228 56 -483 70 -703 40z m283 -919 c40 -34 110 -65 148
-65 17 0 51 13 78 31 43 26 50 28 65 16 54 -48 117 -58 168 -27 l33 20 47 -26
c39 -21 56 -24 88 -19 59 10 75 9 128 -10 36 -13 56 -15 80 -8 26 7 38 5 66
-14 19 -13 44 -23 56 -23 31 0 35 -20 35 -177 0 -83 5 -142 12 -159 9 -19 35
-37 93 -64 44 -21 94 -53 112 -71 30 -33 62 -113 50 -125 -3 -4 -57 2 -119 12
-90 15 -164 19 -368 19 l-255 -1 -115 -38 c-63 -21 -132 -47 -152 -57 -33 -17
-61 -19 -265 -18 -244 0 -274 5 -424 62 -118 46 -201 57 -411 57 -150 -1 -229
-6 -353 -24 -88 -13 -161 -23 -162 -22 -2 1 5 33 15 71 14 59 22 73 51 92 19
13 52 28 75 33 100 25 125 62 127 185 0 44 6 103 13 130 10 44 14 50 34 47 37
-5 86 16 122 53 l33 34 36 -20 c19 -10 53 -19 74 -19 31 0 46 8 87 46 l49 46
26 -20 c33 -26 101 -37 140 -22 16 6 48 27 72 46 25 20 44 30 48 24 12 -20
110 -70 137 -70 36 0 105 32 148 69 19 17 38 31 42 31 3 0 20 -11 36 -25z
m-594 -804 c146 -39 243 -97 268 -161 25 -63 0 -183 -68 -325 -38 -81 -114
-156 -189 -186 -55 -21 -74 -23 -245 -24 -203 0 -310 14 -381 49 -58 29 -118
120 -154 231 -35 106 -32 192 8 272 24 47 34 56 99 87 66 31 183 67 263 79 17
3 95 4 175 2 109 -2 165 -8 224 -24z m1661 -5 c127 -38 177 -73 215 -148 24
-50 30 -74 30 -127 0 -86 -22 -170 -65 -246 -47 -84 -89 -121 -156 -139 -90
-23 -283 -39 -398 -33 -204 11 -297 67 -376 231 -24 50 -52 123 -61 161 -28
125 -2 187 104 243 140 75 232 93 452 88 144 -3 177 -7 255 -30z m-2565 -51
c7 -9 10 -25 6 -41 -9 -33 -49 -31 -54 4 -7 48 21 69 48 37z m2970 1 c18 -23
8 -61 -18 -64 -26 -4 -37 17 -28 53 7 28 27 33 46 11z m-3095 -123 c14 -119
56 -383 86 -527 16 -83 27 -156 24 -164 -9 -23 -167 -12 -230 17 -127 57 -195
192 -195 391 0 217 90 339 252 340 l57 0 6 -57z m3330 38 c95 -44 145 -136
153 -278 11 -214 -60 -377 -191 -434 -68 -29 -223 -40 -233 -16 -3 9 6 67 20
129 22 101 51 277 87 531 l12 87 56 0 c33 0 72 -8 96 -19z m-1620 -25 c19 -8
35 -19 35 -25 0 -5 12 -16 27 -23 22 -11 29 -24 39 -74 26 -129 101 -281 174
-355 81 -81 191 -111 415 -111 227 0 373 33 446 101 44 43 98 151 128 259 24
86 27 92 51 92 16 0 19 -5 15 -27 -3 -16 -14 -89 -26 -163 -42 -271 -162 -767
-210 -860 -9 -19 -39 -57 -66 -83 -100 -100 -704 -478 -819 -513 -35 -10 -122
-14 -338 -16 -271 -2 -294 -1 -341 18 -82 33 -376 207 -576 340 -195 130 -269
196 -307 275 -46 96 -182 688 -228 996 l-6 42 28 -8 c25 -6 31 -16 54 -97 62
-213 127 -290 277 -328 95 -25 284 -37 404 -26 177 15 276 58 344 150 58 77
126 238 143 341 6 35 12 45 30 47 13 2 26 10 29 19 3 8 20 21 37 29 43 18 197
18 241 0z m-19 -1958 c-3 -29 -6 -99 -6 -155 0 -127 -5 -133 -98 -133 -37 0
-73 4 -81 9 -17 11 -33 318 -16 325 6 3 55 5 109 5 l99 1 -7 -52z"/>
<path d="M1924 2581 c-124 -35 -254 -115 -254 -155 0 -26 17 -46 40 -46 8 0
35 14 60 30 25 16 48 30 53 30 4 0 7 -17 7 -39 0 -55 52 -129 110 -158 79 -41
198 -27 258 30 36 33 64 96 71 155 l6 52 63 -30 c74 -35 106 -29 100 18 -11
94 -333 165 -514 113z"/>
<path d="M3420 2584 c-125 -27 -224 -79 -218 -116 2 -11 12 -27 23 -34 17 -11
28 -9 80 16 l60 28 8 -50 c10 -68 54 -145 99 -176 78 -51 218 -39 284 26 33
33 63 97 64 135 0 15 3 27 6 27 3 0 25 -13 49 -30 54 -37 82 -38 97 -4 12 25
10 29 -27 61 -50 43 -162 98 -240 118 -73 18 -198 18 -285 -1z"/>
<path d="M2705 2620 c-3 -5 6 -26 22 -47 38 -49 43 -142 14 -270 -30 -134 -26
-205 12 -190 11 4 16 27 20 84 2 43 12 112 22 153 26 115 12 198 -45 258 -23
24 -35 28 -45 12z"/>
<path d="M3030 2089 c0 -6 9 -22 20 -36 47 -59 9 -120 -67 -108 -36 6 -37 5
-19 -9 29 -23 88 -20 121 6 25 19 27 26 23 70 -3 27 -13 57 -23 68 -19 21 -55
27 -55 9z"/>
<path d="M2570 2058 c-34 -56 -26 -109 21 -133 34 -18 65 -18 104 -1 30 14 29
14 -23 13 -43 -2 -57 2 -68 17 -20 27 -18 59 6 89 25 32 25 47 0 47 -12 0 -28
-13 -40 -32z"/>
<path d="M2640 1995 c-18 -22 -3 -35 43 -35 27 -1 57 -10 82 -25 56 -35 108
-33 164 5 24 17 57 30 73 30 42 0 35 34 -9 38 -23 2 -40 -5 -65 -27 -68 -59
-108 -60 -171 -4 -41 36 -95 45 -117 18z"/>
<path d="M2966 1545 c-24 -36 -53 -48 -118 -47 -48 1 -65 6 -89 26 -24 21 -34
24 -50 16 -41 -23 -11 -85 54 -109 40 -15 151 -14 190 3 65 27 112 114 71 130
-28 11 -41 6 -58 -19z"/>
</g>
</svg>
